<?xml version="1.0" standalone="no"?>
<!DOCTYPE svg PUBLIC "-//W3C//DTD SVG 20010904//EN"
 "http://www.w3.org/TR/2001/REC-SVG-20010904/DTD/svg10.dtd">
<svg version="1.0" xmlns="http://www.w3.org/2000/svg"
 width="1024.000000pt" height="1024.000000pt" viewBox="0 0 1024.000000 1024.000000"
 preserveAspectRatio="xMidYMid meet">

<g transform="translate(0.000000,1024.000000) scale(0.100000,-0.100000)"
fill="#000000" stroke="none">
<path d="M2110 10220 c-124 -8 -281 -26 -370 -42 -30 -5 -64 -11 -75 -13 -41
-6 -130 -27 -145 -32 -8 -3 -19 -7 -25 -7 -10 -2 -90 -24 -113 -31 -7 -3 -14
-4 -17 -5 -3 0 -20 -7 -38 -17 -17 -9 -36 -17 -42 -18 -10 -1 -33 -10 -122
-51 -28 -13 -57 -24 -62 -24 -6 0 -11 -4 -11 -8 0 -4 -12 -13 -27 -20 -16 -7
-50 -26 -78 -42 -27 -16 -58 -32 -67 -36 -9 -3 -19 -12 -22 -20 -3 -8 -12 -14
-20 -14 -7 0 -21 -11 -30 -25 -9 -14 -21 -23 -25 -20 -5 2 -14 -2 -21 -10 -7
-8 -16 -12 -21 -9 -5 3 -6 -2 -3 -11 4 -10 2 -14 -8 -10 -8 3 -23 -7 -36 -25
-13 -17 -26 -28 -31 -26 -9 6 -211 -196 -211 -211 0 -6 -16 -23 -36 -38 -19
-15 -33 -32 -31 -38 2 -7 -7 -20 -20 -31 -13 -10 -22 -21 -19 -24 3 -3 -3 -12
-14 -19 -11 -8 -18 -18 -15 -23 3 -4 -2 -10 -10 -14 -8 -3 -15 -12 -15 -20 0
-8 -4 -16 -9 -18 -5 -1 -11 -10 -13 -18 -2 -8 -11 -21 -20 -28 -10 -7 -23 -30
-29 -52 -7 -22 -16 -37 -22 -33 -6 4 -8 0 -4 -10 3 -9 3 -17 -1 -19 -13 -5
-52 -75 -52 -92 0 -9 -5 -16 -11 -16 -6 0 -9 -7 -5 -15 3 -8 1 -15 -4 -15 -5
0 -12 -16 -16 -35 -3 -19 -10 -35 -16 -35 -5 0 -7 -4 -3 -9 3 -5 1 -12 -5 -16
-5 -3 -10 -14 -10 -23 0 -9 -6 -29 -14 -43 -7 -14 -19 -50 -25 -80 -7 -30 -16
-63 -21 -74 -5 -11 -17 -58 -27 -105 -17 -81 -18 -257 -17 -3395 0 -1821 3
-3323 6 -3340 3 -16 11 -57 17 -90 7 -33 16 -69 21 -80 5 -11 14 -47 21 -80 6
-33 15 -64 19 -70 4 -5 11 -26 15 -45 4 -19 16 -54 26 -77 11 -23 19 -45 19
-48 0 -20 117 -257 168 -340 34 -55 67 -102 140 -195 55 -71 209 -224 292
-289 151 -121 361 -246 460 -276 14 -4 34 -14 45 -21 11 -8 26 -14 35 -14 8 0
27 -6 41 -14 14 -7 50 -19 80 -26 30 -7 61 -17 69 -21 19 -11 140 -36 255 -55
50 -8 119 -19 155 -25 186 -30 409 -32 3110 -37 2726 -4 2874 -2 3245 28 129
11 324 39 350 50 11 4 49 14 85 20 36 7 70 15 75 19 6 4 35 13 65 20 30 8 60
17 65 21 6 4 24 10 40 14 17 4 46 14 65 23 66 29 225 107 230 112 3 3 21 14
40 23 34 17 84 45 105 61 49 36 136 101 165 124 69 56 228 220 278 288 4 6 25
35 48 65 22 30 47 66 54 80 7 13 19 31 27 38 7 7 13 20 13 28 0 8 4 14 9 14 5
0 15 16 22 35 7 19 16 35 19 35 4 0 13 18 20 40 7 22 16 40 21 40 4 0 10 12
14 27 3 15 17 50 31 79 13 28 24 58 24 67 0 8 4 17 8 19 8 3 34 84 58 183 8
33 19 69 24 80 34 75 34 78 34 3495 0 3401 -1 3452 -34 3495 -4 6 -13 35 -20
65 -7 30 -16 60 -20 65 -4 6 -13 34 -20 63 -6 28 -15 52 -20 52 -4 0 -10 14
-14 30 -3 17 -17 54 -31 84 -14 29 -25 58 -25 64 0 6 -3 12 -7 14 -5 2 -21 30
-38 63 -29 58 -63 114 -76 125 -3 3 -12 16 -19 30 -14 27 -124 173 -152 201
-9 10 -20 14 -24 11 -4 -4 -4 -2 -1 4 6 10 -115 133 -181 186 -137 110 -174
137 -192 143 -11 3 -20 10 -20 15 0 5 -16 14 -34 21 -19 7 -33 16 -31 20 3 4
-6 10 -19 13 -14 3 -31 12 -38 19 -27 25 -250 130 -303 143 -17 4 -34 10 -40
14 -5 5 -30 13 -55 19 -25 7 -54 16 -65 21 -77 37 -403 86 -669 100 -209 12
-5800 11 -5976 0z m3158 -122 c9 -9 12 -1121 12 -4942 0 -2712 -4 -4936 -8
-4942 -16 -25 -56 -34 -147 -34 -91 0 -131 9 -147 34 -10 14 -10 9880 -1 9889
12 13 278 8 291 -5z m-3319 -2531 c27 -18 50 -44 62 -70 18 -41 19 -103 19
-2255 0 -1836 -2 -2218 -14 -2245 -17 -43 -78 -95 -119 -102 -18 -4 -129 -5
-247 -3 -210 3 -216 4 -252 28 -20 14 -46 41 -58 61 -20 37 -20 38 -20 2266
l0 2230 30 41 c55 76 78 81 341 79 l216 -2 42 -28z m6884 -346 c21 -13 50 -42
65 -65 l27 -41 0 -2065 0 -2065 -30 -42 c-16 -23 -49 -51 -72 -63 -40 -20 -55
-21 -261 -18 l-219 3 -42 28 c-25 16 -49 43 -57 62 -12 29 -14 337 -14 2096 0
2284 -5 2101 64 2154 51 39 90 44 301 42 191 -2 202 -3 238 -26z m-2073 -1326
c35 -4 86 -21 137 -46 174 -86 293 -276 293 -467 0 -73 -29 -185 -66 -253 -36
-67 -133 -166 -198 -202 -162 -90 -370 -90 -532 0 -63 35 -162 134 -197 197
-86 155 -90 341 -9 501 42 84 144 181 239 226 81 39 182 60 248 53 17 -2 55
-6 85 -9z"/>
</g>
</svg>
